<mxfile host="app.diagrams.net" modified="2021-09-03T07:05:05.780Z" agent="5.0 (Windows NT 10.0; Win64; x64) AppleWebKit/537.36 (KHTML, like Gecko) Chrome/93.0.4577.63 Safari/537.36" etag="b0eOU4GX2tetCounzEHl" version="15.0.6" type="github">
  <diagram id="C5RBs43oDa-KdzZeNtuy" name="Page-1">
    <mxGraphModel dx="1790" dy="867" grid="1" gridSize="10" guides="1" tooltips="1" connect="1" arrows="1" fold="1" page="1" pageScale="1" pageWidth="827" pageHeight="1169" math="0" shadow="0">
      <root>
        <mxCell id="WIyWlLk6GJQsqaUBKTNV-0" />
        <mxCell id="WIyWlLk6GJQsqaUBKTNV-1" parent="WIyWlLk6GJQsqaUBKTNV-0" />
        <mxCell id="nziMc3zZna5WPYhRgBaK-10" style="edgeStyle=orthogonalEdgeStyle;rounded=0;orthogonalLoop=1;jettySize=auto;html=1;" edge="1" parent="WIyWlLk6GJQsqaUBKTNV-1" source="nziMc3zZna5WPYhRgBaK-67" target="nziMc3zZna5WPYhRgBaK-65">
          <mxGeometry relative="1" as="geometry">
            <mxPoint x="334" y="180" as="sourcePoint" />
            <mxPoint x="334" y="240" as="targetPoint" />
          </mxGeometry>
        </mxCell>
        <mxCell id="nziMc3zZna5WPYhRgBaK-34" value="Yes" style="edgeStyle=orthogonalEdgeStyle;rounded=0;orthogonalLoop=1;jettySize=auto;html=1;" edge="1" parent="WIyWlLk6GJQsqaUBKTNV-1" source="WIyWlLk6GJQsqaUBKTNV-6" target="nziMc3zZna5WPYhRgBaK-21">
          <mxGeometry relative="1" as="geometry" />
        </mxCell>
        <mxCell id="nziMc3zZna5WPYhRgBaK-42" value="No" style="edgeStyle=orthogonalEdgeStyle;rounded=0;orthogonalLoop=1;jettySize=auto;html=1;" edge="1" parent="WIyWlLk6GJQsqaUBKTNV-1" source="WIyWlLk6GJQsqaUBKTNV-6" target="nziMc3zZna5WPYhRgBaK-62">
          <mxGeometry x="-0.9195" relative="1" as="geometry">
            <Array as="points">
              <mxPoint x="230" y="340" />
              <mxPoint x="230" y="840" />
            </Array>
            <mxPoint as="offset" />
          </mxGeometry>
        </mxCell>
        <mxCell id="WIyWlLk6GJQsqaUBKTNV-6" value="校验设备ID&lt;br&gt;及时间戳是否符合条件" style="rhombus;whiteSpace=wrap;html=1;shadow=0;fontFamily=Helvetica;fontSize=12;align=center;strokeWidth=1;spacing=6;spacingTop=-4;" parent="WIyWlLk6GJQsqaUBKTNV-1" vertex="1">
          <mxGeometry x="277" y="300" width="114" height="80" as="geometry" />
        </mxCell>
        <mxCell id="nziMc3zZna5WPYhRgBaK-6" style="edgeStyle=orthogonalEdgeStyle;rounded=0;orthogonalLoop=1;jettySize=auto;html=1;" edge="1" parent="WIyWlLk6GJQsqaUBKTNV-1" source="nziMc3zZna5WPYhRgBaK-69" target="nziMc3zZna5WPYhRgBaK-68">
          <mxGeometry relative="1" as="geometry">
            <mxPoint x="414" y="60" as="sourcePoint" />
            <mxPoint x="494" y="130" as="targetPoint" />
          </mxGeometry>
        </mxCell>
        <mxCell id="nziMc3zZna5WPYhRgBaK-7" style="edgeStyle=orthogonalEdgeStyle;rounded=0;orthogonalLoop=1;jettySize=auto;html=1;" edge="1" parent="WIyWlLk6GJQsqaUBKTNV-1" source="nziMc3zZna5WPYhRgBaK-69" target="nziMc3zZna5WPYhRgBaK-67">
          <mxGeometry relative="1" as="geometry">
            <mxPoint x="414" y="60" as="sourcePoint" />
            <mxPoint x="334" y="130" as="targetPoint" />
          </mxGeometry>
        </mxCell>
        <mxCell id="nziMc3zZna5WPYhRgBaK-11" style="edgeStyle=orthogonalEdgeStyle;rounded=0;orthogonalLoop=1;jettySize=auto;html=1;" edge="1" parent="WIyWlLk6GJQsqaUBKTNV-1" source="nziMc3zZna5WPYhRgBaK-68" target="nziMc3zZna5WPYhRgBaK-24">
          <mxGeometry relative="1" as="geometry">
            <mxPoint x="494" y="180" as="sourcePoint" />
            <mxPoint x="494" y="210" as="targetPoint" />
          </mxGeometry>
        </mxCell>
        <mxCell id="nziMc3zZna5WPYhRgBaK-12" style="edgeStyle=orthogonalEdgeStyle;rounded=0;orthogonalLoop=1;jettySize=auto;html=1;" edge="1" parent="WIyWlLk6GJQsqaUBKTNV-1" source="nziMc3zZna5WPYhRgBaK-65" target="WIyWlLk6GJQsqaUBKTNV-6">
          <mxGeometry relative="1" as="geometry">
            <mxPoint x="334" y="260" as="sourcePoint" />
          </mxGeometry>
        </mxCell>
        <mxCell id="nziMc3zZna5WPYhRgBaK-44" value="" style="edgeStyle=orthogonalEdgeStyle;rounded=0;orthogonalLoop=1;jettySize=auto;html=1;" edge="1" parent="WIyWlLk6GJQsqaUBKTNV-1" source="nziMc3zZna5WPYhRgBaK-21" target="nziMc3zZna5WPYhRgBaK-43">
          <mxGeometry relative="1" as="geometry" />
        </mxCell>
        <mxCell id="nziMc3zZna5WPYhRgBaK-21" value="使用围棋APP的Token申请登录" style="whiteSpace=wrap;html=1;shadow=0;strokeWidth=1;spacing=6;spacingTop=-4;" vertex="1" parent="WIyWlLk6GJQsqaUBKTNV-1">
          <mxGeometry x="354" y="460" width="120" height="60" as="geometry" />
        </mxCell>
        <mxCell id="nziMc3zZna5WPYhRgBaK-39" value="Yes" style="edgeStyle=orthogonalEdgeStyle;rounded=0;orthogonalLoop=1;jettySize=auto;html=1;" edge="1" parent="WIyWlLk6GJQsqaUBKTNV-1" source="nziMc3zZna5WPYhRgBaK-24" target="nziMc3zZna5WPYhRgBaK-21">
          <mxGeometry relative="1" as="geometry" />
        </mxCell>
        <mxCell id="nziMc3zZna5WPYhRgBaK-40" value="No" style="edgeStyle=orthogonalEdgeStyle;rounded=0;orthogonalLoop=1;jettySize=auto;html=1;exitX=1;exitY=0.5;exitDx=0;exitDy=0;" edge="1" parent="WIyWlLk6GJQsqaUBKTNV-1" source="nziMc3zZna5WPYhRgBaK-24" target="nziMc3zZna5WPYhRgBaK-62">
          <mxGeometry x="-0.9141" relative="1" as="geometry">
            <mxPoint x="620" y="460" as="targetPoint" />
            <Array as="points">
              <mxPoint x="590" y="340" />
              <mxPoint x="590" y="840" />
            </Array>
            <mxPoint as="offset" />
          </mxGeometry>
        </mxCell>
        <mxCell id="nziMc3zZna5WPYhRgBaK-24" value="检查注册表中&lt;br&gt;是否存在跳转Token" style="rhombus;whiteSpace=wrap;html=1;shadow=0;fontFamily=Helvetica;fontSize=12;align=center;strokeWidth=1;spacing=6;spacingTop=-4;" vertex="1" parent="WIyWlLk6GJQsqaUBKTNV-1">
          <mxGeometry x="437" y="300" width="114" height="80" as="geometry" />
        </mxCell>
        <mxCell id="nziMc3zZna5WPYhRgBaK-59" value="No" style="edgeStyle=orthogonalEdgeStyle;rounded=0;orthogonalLoop=1;jettySize=auto;html=1;" edge="1" parent="WIyWlLk6GJQsqaUBKTNV-1" source="nziMc3zZna5WPYhRgBaK-43" target="nziMc3zZna5WPYhRgBaK-58">
          <mxGeometry relative="1" as="geometry" />
        </mxCell>
        <mxCell id="nziMc3zZna5WPYhRgBaK-72" value="Yes" style="edgeStyle=orthogonalEdgeStyle;rounded=0;orthogonalLoop=1;jettySize=auto;html=1;entryX=0.5;entryY=0;entryDx=0;entryDy=0;" edge="1" parent="WIyWlLk6GJQsqaUBKTNV-1" source="nziMc3zZna5WPYhRgBaK-43" target="nziMc3zZna5WPYhRgBaK-74">
          <mxGeometry x="-0.9145" relative="1" as="geometry">
            <mxPoint x="346" y="1030" as="targetPoint" />
            <Array as="points">
              <mxPoint x="200" y="595" />
              <mxPoint x="200" y="950" />
              <mxPoint x="414" y="950" />
            </Array>
            <mxPoint as="offset" />
          </mxGeometry>
        </mxCell>
        <mxCell id="nziMc3zZna5WPYhRgBaK-43" value="校验该用户&lt;br&gt;是否用手机号在&lt;br&gt;围棋APP注册过" style="rhombus;whiteSpace=wrap;html=1;shadow=0;strokeWidth=1;spacing=6;spacingTop=-4;" vertex="1" parent="WIyWlLk6GJQsqaUBKTNV-1">
          <mxGeometry x="353" y="550" width="121" height="90" as="geometry" />
        </mxCell>
        <mxCell id="nziMc3zZna5WPYhRgBaK-56" value="&lt;span&gt;TOKEN：围棋APP登录TOKEN，APP通过剪切版存储及获取（需要校验deviceID，并且有10分钟可用时效）&lt;br&gt;&lt;br&gt;&lt;/span&gt;" style="rounded=1;whiteSpace=wrap;html=1;" vertex="1" parent="WIyWlLk6GJQsqaUBKTNV-1">
          <mxGeometry x="530" width="297" height="50" as="geometry" />
        </mxCell>
        <mxCell id="nziMc3zZna5WPYhRgBaK-61" value="Yes" style="edgeStyle=orthogonalEdgeStyle;rounded=0;orthogonalLoop=1;jettySize=auto;html=1;" edge="1" parent="WIyWlLk6GJQsqaUBKTNV-1" source="nziMc3zZna5WPYhRgBaK-58" target="nziMc3zZna5WPYhRgBaK-60">
          <mxGeometry x="-0.6788" relative="1" as="geometry">
            <mxPoint as="offset" />
          </mxGeometry>
        </mxCell>
        <mxCell id="nziMc3zZna5WPYhRgBaK-63" value="No" style="edgeStyle=orthogonalEdgeStyle;rounded=0;orthogonalLoop=1;jettySize=auto;html=1;" edge="1" parent="WIyWlLk6GJQsqaUBKTNV-1" source="nziMc3zZna5WPYhRgBaK-58" target="nziMc3zZna5WPYhRgBaK-62">
          <mxGeometry relative="1" as="geometry" />
        </mxCell>
        <mxCell id="nziMc3zZna5WPYhRgBaK-58" value="服务器告知TOKEN是否有效" style="rhombus;whiteSpace=wrap;html=1;shadow=0;strokeWidth=1;spacing=6;spacingTop=-4;" vertex="1" parent="WIyWlLk6GJQsqaUBKTNV-1">
          <mxGeometry x="362" y="680" width="104" height="80" as="geometry" />
        </mxCell>
        <mxCell id="nziMc3zZna5WPYhRgBaK-77" value="" style="edgeStyle=orthogonalEdgeStyle;rounded=0;orthogonalLoop=1;jettySize=auto;html=1;" edge="1" parent="WIyWlLk6GJQsqaUBKTNV-1" source="nziMc3zZna5WPYhRgBaK-60" target="nziMc3zZna5WPYhRgBaK-76">
          <mxGeometry relative="1" as="geometry" />
        </mxCell>
        <mxCell id="nziMc3zZna5WPYhRgBaK-60" value="跳转至特殊注册界面，告知可以继承昵称及段位" style="whiteSpace=wrap;html=1;shadow=0;strokeWidth=1;spacing=6;spacingTop=-4;" vertex="1" parent="WIyWlLk6GJQsqaUBKTNV-1">
          <mxGeometry x="630" y="770" width="120" height="60" as="geometry" />
        </mxCell>
        <mxCell id="nziMc3zZna5WPYhRgBaK-75" style="edgeStyle=orthogonalEdgeStyle;rounded=0;orthogonalLoop=1;jettySize=auto;html=1;" edge="1" parent="WIyWlLk6GJQsqaUBKTNV-1" source="nziMc3zZna5WPYhRgBaK-62" target="nziMc3zZna5WPYhRgBaK-74">
          <mxGeometry relative="1" as="geometry" />
        </mxCell>
        <mxCell id="nziMc3zZna5WPYhRgBaK-62" value="正常登录流程，Login界面-&amp;gt;注册-&amp;gt;登录" style="whiteSpace=wrap;html=1;shadow=0;strokeWidth=1;spacing=6;spacingTop=-4;" vertex="1" parent="WIyWlLk6GJQsqaUBKTNV-1">
          <mxGeometry x="354" y="810" width="120" height="60" as="geometry" />
        </mxCell>
        <mxCell id="nziMc3zZna5WPYhRgBaK-65" value="&#xa;&#xa;&lt;span style=&quot;color: rgb(0, 0, 0); font-family: helvetica; font-size: 12px; font-style: normal; font-weight: 400; letter-spacing: normal; text-align: center; text-indent: 0px; text-transform: none; word-spacing: 0px; background-color: rgb(248, 249, 250); display: inline; float: none;&quot;&gt;查询剪切板信息&lt;/span&gt;&#xa;&#xa;" style="rounded=0;whiteSpace=wrap;html=1;" vertex="1" parent="WIyWlLk6GJQsqaUBKTNV-1">
          <mxGeometry x="274" y="220" width="120" height="40" as="geometry" />
        </mxCell>
        <mxCell id="nziMc3zZna5WPYhRgBaK-67" value="APP" style="rounded=0;whiteSpace=wrap;html=1;" vertex="1" parent="WIyWlLk6GJQsqaUBKTNV-1">
          <mxGeometry x="287.5" y="135" width="93" height="40" as="geometry" />
        </mxCell>
        <mxCell id="nziMc3zZna5WPYhRgBaK-68" value="PC" style="rounded=0;whiteSpace=wrap;html=1;" vertex="1" parent="WIyWlLk6GJQsqaUBKTNV-1">
          <mxGeometry x="447.5" y="135" width="93" height="40" as="geometry" />
        </mxCell>
        <mxCell id="nziMc3zZna5WPYhRgBaK-69" value="GameStart" style="rounded=1;whiteSpace=wrap;html=1;" vertex="1" parent="WIyWlLk6GJQsqaUBKTNV-1">
          <mxGeometry x="362" width="98" height="45" as="geometry" />
        </mxCell>
        <mxCell id="nziMc3zZna5WPYhRgBaK-74" value="&#xa;&#xa;&lt;span style=&quot;color: rgb(0, 0, 0); font-family: helvetica; font-size: 12px; font-style: normal; font-weight: 400; letter-spacing: normal; text-align: center; text-indent: 0px; text-transform: none; word-spacing: 0px; background-color: rgb(248, 249, 250); display: inline; float: none;&quot;&gt;返回登录成功信息，登录至主场景&lt;/span&gt;&#xa;&#xa;" style="rounded=1;whiteSpace=wrap;html=1;" vertex="1" parent="WIyWlLk6GJQsqaUBKTNV-1">
          <mxGeometry x="354" y="1000" width="120" height="60" as="geometry" />
        </mxCell>
        <mxCell id="nziMc3zZna5WPYhRgBaK-78" style="edgeStyle=orthogonalEdgeStyle;rounded=0;orthogonalLoop=1;jettySize=auto;html=1;" edge="1" parent="WIyWlLk6GJQsqaUBKTNV-1" source="nziMc3zZna5WPYhRgBaK-76" target="nziMc3zZna5WPYhRgBaK-74">
          <mxGeometry relative="1" as="geometry" />
        </mxCell>
        <mxCell id="nziMc3zZna5WPYhRgBaK-76" value="绑定手机号" style="whiteSpace=wrap;html=1;shadow=0;strokeWidth=1;spacing=6;spacingTop=-4;" vertex="1" parent="WIyWlLk6GJQsqaUBKTNV-1">
          <mxGeometry x="630" y="920" width="120" height="60" as="geometry" />
        </mxCell>
      </root>
    </mxGraphModel>
  </diagram>
</mxfile>
